<?xml version="1.0" encoding="UTF-8" standalone="no"?>
<!-- Generator: Adobe Illustrator 13.0.0, SVG Export Plug-In . SVG Version: 6.00 Build 14948)  -->

<svg
   xmlns:dc="http://purl.org/dc/elements/1.1/"
   xmlns:cc="http://creativecommons.org/ns#"
   xmlns:rdf="http://www.w3.org/1999/02/22-rdf-syntax-ns#"
   xmlns:svg="http://www.w3.org/2000/svg"
   xmlns="http://www.w3.org/2000/svg"
   xmlns:sodipodi="http://sodipodi.sourceforge.net/DTD/sodipodi-0.dtd"
   xmlns:inkscape="http://www.inkscape.org/namespaces/inkscape"
   version="1.1"
   x="0px"
   y="0px"
   width="512"
   height="512"
   viewBox="0 0 512.00002 512"
   enable-background="new 0 0 830.082 727"
   xml:space="preserve"
   id="svg4044"
   inkscape:version="0.91 r13725"
   sodipodi:docname="peace-dove.svg"><sodipodi:namedview
     pagecolor="#ffffff"
     bordercolor="#666666"
     borderopacity="1"
     objecttolerance="10"
     gridtolerance="10"
     guidetolerance="10"
     inkscape:pageopacity="0"
     inkscape:pageshadow="2"
     inkscape:window-width="1863"
     inkscape:window-height="1056"
     id="namedview4285"
     showgrid="false"
     inkscape:zoom="0.5"
     inkscape:cx="12.040985"
     inkscape:cy="363.5"
     inkscape:window-x="57"
     inkscape:window-y="24"
     inkscape:window-maximized="1"
     inkscape:current-layer="svg4044" /><path
     d="m 181.05207,341.19878 c 0,0 -140.43207,-20.90686 -181.2473,-165.7062 0,0 87.85652,41.81371 191.62406,13.16358 0,0 13.83567,-21.68119 -40.81523,-89.04773 0,0 163.95271,15.48656 170.87055,112.27757 0,0 71.94549,-109.18026 155.65131,-34.84477 0,0 11.06853,-9.29193 0.69178,-37.16774 0,0 -51.88377,17.03522 -69.17836,-34.07044 0,0 36.66453,-10.06626 52.57555,5.4203 0,0 -2.76713,-11.61492 -14.52745,-27.10148 0,0 -26.28778,34.07043 -74.02085,-5.4203 0,0 13.14389,-30.97312 49.11664,-18.58387 0,0 -76.78798,-10.06627 -91.31544,-42.588043 0,0 33.20561,-47.234011 99.61684,31.747453 0,0 -1.38357,-35.619094 6.91784,-48.78267 0,0 53.26733,13.163576 20.7535,69.68952 0,0 10.37676,13.93791 15.21924,26.32716 0,0 2.07535,-39.49073 18.67816,-48.00834 0,0 44.96594,24.00417 -2.76713,80.53012 0,0 26.97956,93.69369 -5.53427,117.69786 0,0 7.60962,-36.39342 -0.69179,-42.58804 0,0 -57.41803,-0.77433 -77.47976,82.8531 0,0 -6.91784,172.67515 -208.22686,149.44531 0,0 -51.88377,49.557 -51.88377,75.10982 L 53.76389,472.06022 c 0,0 134.8978,-82.8531 127.28818,-130.86144 z"
     id="path4283"
     inkscape:connector-curvature="0"
     style="stroke:#ffffff;stroke-width:0.73189306" /><metadata
     id="metadata4293"><rdf:RDF><cc:Work
         rdf:about=""><dc:title></dc:title></cc:Work></rdf:RDF></metadata></svg>